<svg width="1441" height="1853" viewBox="0 0 1441 1853" fill="none" xmlns="http://www.w3.org/2000/svg">
<g opacity="0.2">
<ellipse cx="142.404" cy="0.786759" rx="0.78676" ry="0.786759" fill="white"/>
<ellipse cx="260.418" cy="0.786759" rx="0.786761" ry="0.786759" fill="white"/>
<ellipse cx="378.433" cy="0.786759" rx="0.78675" ry="0.786759" fill="white"/>
<ellipse cx="496.446" cy="0.786759" rx="0.786718" ry="0.786759" fill="white"/>
<ellipse cx="614.461" cy="0.786759" rx="0.786761" ry="0.786759" fill="white"/>
<ellipse cx="732.474" cy="0.786759" rx="0.786675" ry="0.786759" fill="white"/>
<ellipse cx="850.486" cy="0.786759" rx="0.786783" ry="0.786759" fill="white"/>
<ellipse cx="968.502" cy="0.786759" rx="0.786739" ry="0.786759" fill="white"/>
<ellipse cx="1086.52" cy="0.786759" rx="0.786739" ry="0.786759" fill="white"/>
<ellipse cx="1204.53" cy="0.786759" rx="0.786783" ry="0.786759" fill="white"/>
<circle cx="181.741" cy="79.4625" r="0.786758" fill="white"/>
<ellipse cx="299.756" cy="79.4625" rx="0.786761" ry="0.786758" fill="white"/>
<ellipse cx="417.769" cy="79.4625" rx="0.786772" ry="0.786758" fill="white"/>
<ellipse cx="535.783" cy="79.4625" rx="0.786761" ry="0.786758" fill="white"/>
<ellipse cx="653.797" cy="79.4625" rx="0.786739" ry="0.786758" fill="white"/>
<ellipse cx="771.812" cy="79.4625" rx="0.786739" ry="0.786758" fill="white"/>
<ellipse cx="889.824" cy="79.4625" rx="0.786783" ry="0.786758" fill="white"/>
<ellipse cx="1007.84" cy="79.4625" rx="0.786783" ry="0.786758" fill="white"/>
<ellipse cx="1125.85" cy="79.4625" rx="0.786739" ry="0.786758" fill="white"/>
<ellipse cx="1243.87" cy="79.4625" rx="0.786783" ry="0.786758" fill="white"/>
<ellipse cx="110.932" cy="158.138" rx="0.786759" ry="0.786756" fill="white"/>
<circle cx="228.946" cy="158.138" r="0.786756" fill="white"/>
<ellipse cx="346.962" cy="158.138" rx="0.78675" ry="0.786756" fill="white"/>
<ellipse cx="464.974" cy="158.138" rx="0.786793" ry="0.786756" fill="white"/>
<ellipse cx="582.989" cy="158.138" rx="0.786739" ry="0.786756" fill="white"/>
<ellipse cx="701.005" cy="158.138" rx="0.786739" ry="0.786756" fill="white"/>
<ellipse cx="819.014" cy="158.138" rx="0.786761" ry="0.786756" fill="white"/>
<ellipse cx="937.03" cy="158.138" rx="0.786783" ry="0.786756" fill="white"/>
<ellipse cx="1055.04" cy="158.138" rx="0.786739" ry="0.786756" fill="white"/>
<ellipse cx="1173.06" cy="158.138" rx="0.786783" ry="0.786756" fill="white"/>
<ellipse cx="103.066" cy="236.814" rx="0.786757" ry="0.786761" fill="white"/>
<circle cx="221.082" cy="236.814" r="0.786761" fill="white"/>
<circle cx="339.092" cy="236.814" r="0.786761" fill="white"/>
<ellipse cx="457.109" cy="236.814" rx="0.78675" ry="0.786761" fill="white"/>
<circle cx="575.123" cy="236.814" r="0.786761" fill="white"/>
<circle cx="693.134" cy="236.814" r="0.786761" fill="white"/>
<ellipse cx="811.15" cy="236.814" rx="0.786675" ry="0.786761" fill="white"/>
<ellipse cx="929.164" cy="236.814" rx="0.786739" ry="0.786761" fill="white"/>
<ellipse cx="1047.18" cy="236.814" rx="0.786783" ry="0.786761" fill="white"/>
<ellipse cx="1165.19" cy="236.814" rx="0.786783" ry="0.786761" fill="white"/>
<circle cx="158.14" cy="315.49" r="0.786761" fill="white"/>
<ellipse cx="276.154" cy="315.49" rx="0.786777" ry="0.786761" fill="white"/>
<circle cx="394.166" cy="315.49" r="0.786761" fill="white"/>
<ellipse cx="512.181" cy="315.49" rx="0.786739" ry="0.786761" fill="white"/>
<ellipse cx="630.195" cy="315.49" rx="0.786783" ry="0.786761" fill="white"/>
<circle cx="748.207" cy="315.49" r="0.786761" fill="white"/>
<ellipse cx="866.222" cy="315.49" rx="0.786783" ry="0.786761" fill="white"/>
<ellipse cx="984.238" cy="315.49" rx="0.786739" ry="0.786761" fill="white"/>
<ellipse cx="1102.25" cy="315.49" rx="0.786783" ry="0.786761" fill="white"/>
<ellipse cx="1220.26" cy="315.49" rx="0.786783" ry="0.786761" fill="white"/>
<ellipse cx="134.538" cy="394.166" rx="0.786762" ry="0.786761" fill="white"/>
<circle cx="252.548" cy="394.166" r="0.786761" fill="white"/>
<circle cx="370.564" cy="394.166" r="0.786761" fill="white"/>
<ellipse cx="488.579" cy="394.166" rx="0.786783" ry="0.786761" fill="white"/>
<circle cx="606.591" cy="394.166" r="0.786761" fill="white"/>
<circle cx="724.606" cy="394.166" r="0.786761" fill="white"/>
<ellipse cx="842.621" cy="394.166" rx="0.786739" ry="0.786761" fill="white"/>
<ellipse cx="960.633" cy="394.166" rx="0.786783" ry="0.786761" fill="white"/>
<ellipse cx="1078.65" cy="394.166" rx="0.786783" ry="0.786761" fill="white"/>
<ellipse cx="1196.66" cy="394.166" rx="0.786739" ry="0.786761" fill="white"/>
<circle cx="158.14" cy="472.842" r="0.786761" fill="white"/>
<ellipse cx="276.154" cy="472.842" rx="0.786777" ry="0.786761" fill="white"/>
<circle cx="394.166" cy="472.842" r="0.786761" fill="white"/>
<ellipse cx="512.181" cy="472.842" rx="0.786739" ry="0.786761" fill="white"/>
<ellipse cx="630.195" cy="472.842" rx="0.786783" ry="0.786761" fill="white"/>
<circle cx="748.207" cy="472.842" r="0.786761" fill="white"/>
<ellipse cx="866.222" cy="472.842" rx="0.786783" ry="0.786761" fill="white"/>
<ellipse cx="984.238" cy="472.842" rx="0.786739" ry="0.786761" fill="white"/>
<ellipse cx="1102.25" cy="472.842" rx="0.786783" ry="0.786761" fill="white"/>
<ellipse cx="1220.26" cy="472.842" rx="0.786783" ry="0.786761" fill="white"/>
<ellipse cx="118.801" cy="553.091" rx="0.786759" ry="0.786761" fill="white"/>
<circle cx="236.816" cy="553.091" r="0.786761" fill="white"/>
<ellipse cx="354.829" cy="553.091" rx="0.78675" ry="0.786761" fill="white"/>
<ellipse cx="472.843" cy="553.091" rx="0.786793" ry="0.786761" fill="white"/>
<circle cx="590.858" cy="553.091" r="0.786761" fill="white"/>
<circle cx="708.87" cy="553.091" r="0.786761" fill="white"/>
<ellipse cx="826.884" cy="553.091" rx="0.786826" ry="0.786761" fill="white"/>
<ellipse cx="944.899" cy="553.091" rx="0.786739" ry="0.786761" fill="white"/>
<ellipse cx="1062.91" cy="553.091" rx="0.786783" ry="0.786761" fill="white"/>
<ellipse cx="1180.93" cy="553.091" rx="0.786739" ry="0.786761" fill="white"/>
<ellipse cx="166.009" cy="631.767" rx="0.786758" ry="0.786761" fill="white"/>
<circle cx="284.02" cy="631.767" r="0.786761" fill="white"/>
<ellipse cx="402.035" cy="631.767" rx="0.786793" ry="0.786761" fill="white"/>
<circle cx="520.05" cy="631.767" r="0.786761" fill="white"/>
<circle cx="638.061" cy="631.767" r="0.786761" fill="white"/>
<ellipse cx="756.077" cy="631.767" rx="0.786826" ry="0.786761" fill="white"/>
<ellipse cx="874.091" cy="631.767" rx="0.786653" ry="0.786761" fill="white"/>
<ellipse cx="992.103" cy="631.767" rx="0.786783" ry="0.786761" fill="white"/>
<ellipse cx="1110.12" cy="631.767" rx="0.786739" ry="0.786761" fill="white"/>
<ellipse cx="150.272" cy="710.443" rx="0.786758" ry="0.786761" fill="white"/>
<ellipse cx="268.286" cy="710.443" rx="0.786739" ry="0.786761" fill="white"/>
<circle cx="386.3" cy="710.443" r="0.786761" fill="white"/>
<ellipse cx="504.315" cy="710.443" rx="0.786804" ry="0.786761" fill="white"/>
<circle cx="622.327" cy="710.443" r="0.786761" fill="white"/>
<ellipse cx="740.34" cy="710.443" rx="0.786675" ry="0.786761" fill="white"/>
<ellipse cx="858.355" cy="710.443" rx="0.786826" ry="0.786761" fill="white"/>
<ellipse cx="976.369" cy="710.443" rx="0.786783" ry="0.786761" fill="white"/>
<ellipse cx="1094.38" cy="710.443" rx="0.786783" ry="0.786761" fill="white"/>
<ellipse cx="1212.4" cy="710.443" rx="0.786739" ry="0.786761" fill="white"/>
<ellipse cx="197.477" cy="789.119" rx="0.786766" ry="0.786739" fill="white"/>
<ellipse cx="315.492" cy="789.119" rx="0.786761" ry="0.786739" fill="white"/>
<ellipse cx="433.507" cy="789.119" rx="0.786793" ry="0.786739" fill="white"/>
<ellipse cx="551.517" cy="789.119" rx="0.786761" ry="0.786739" fill="white"/>
<circle cx="669.533" cy="789.119" r="0.786739" fill="white"/>
<ellipse cx="787.548" cy="789.119" rx="0.786826" ry="0.786739" fill="white"/>
<ellipse cx="905.56" cy="789.119" rx="0.786783" ry="0.786739" fill="white"/>
<ellipse cx="1023.57" cy="789.119" rx="0.786783" ry="0.786739" fill="white"/>
<circle cx="1141.59" cy="789.119" r="0.786739" fill="white"/>
<ellipse cx="1259.6" cy="789.119" rx="0.787042" ry="0.786739" fill="white"/>
<ellipse cx="134.538" cy="867.795" rx="0.786762" ry="0.786739" fill="white"/>
<ellipse cx="252.548" cy="867.795" rx="0.786761" ry="0.786739" fill="white"/>
<ellipse cx="370.564" cy="867.795" rx="0.786761" ry="0.786739" fill="white"/>
<ellipse cx="488.579" cy="867.795" rx="0.786783" ry="0.786739" fill="white"/>
<ellipse cx="606.591" cy="867.795" rx="0.786761" ry="0.786739" fill="white"/>
<ellipse cx="724.606" cy="867.795" rx="0.786761" ry="0.786739" fill="white"/>
<circle cx="842.621" cy="867.795" r="0.786739" fill="white"/>
<ellipse cx="960.633" cy="867.795" rx="0.786783" ry="0.786739" fill="white"/>
<ellipse cx="1078.65" cy="867.795" rx="0.786783" ry="0.786739" fill="white"/>
<circle cx="1196.66" cy="867.795" r="0.786739" fill="white"/>
<ellipse cx="158.14" cy="946.47" rx="0.786761" ry="0.786739" fill="white"/>
<ellipse cx="276.154" cy="946.47" rx="0.786777" ry="0.786739" fill="white"/>
<ellipse cx="394.166" cy="946.47" rx="0.786761" ry="0.786739" fill="white"/>
<circle cx="512.181" cy="946.47" r="0.786739" fill="white"/>
<ellipse cx="630.195" cy="946.47" rx="0.786783" ry="0.786739" fill="white"/>
<ellipse cx="748.207" cy="946.47" rx="0.786761" ry="0.786739" fill="white"/>
<ellipse cx="866.222" cy="946.47" rx="0.786783" ry="0.786739" fill="white"/>
<circle cx="984.238" cy="946.47" r="0.786739" fill="white"/>
<ellipse cx="1102.25" cy="946.47" rx="0.786783" ry="0.786739" fill="white"/>
<ellipse cx="1220.26" cy="946.47" rx="0.786783" ry="0.786739" fill="white"/>
<ellipse cx="213.213" cy="1033.01" rx="0.786756" ry="0.786739" fill="white"/>
<ellipse cx="331.227" cy="1033.01" rx="0.786761" ry="0.786739" fill="white"/>
<ellipse cx="449.241" cy="1033.01" rx="0.78675" ry="0.786739" fill="white"/>
<ellipse cx="567.254" cy="1033.01" rx="0.786761" ry="0.786739" fill="white"/>
<ellipse cx="685.269" cy="1033.01" rx="0.786826" ry="0.786739" fill="white"/>
<ellipse cx="803.284" cy="1033.01" rx="0.786675" ry="0.786739" fill="white"/>
<ellipse cx="921.295" cy="1033.01" rx="0.786783" ry="0.786739" fill="white"/>
<circle cx="1039.31" cy="1033.01" r="0.786739" fill="white"/>
<circle cx="1157.32" cy="1033.01" r="0.786739" fill="white"/>
<ellipse cx="1275.34" cy="1033.01" rx="0.786783" ry="0.786739" fill="white"/>
<ellipse cx="166.009" cy="1119.56" rx="0.786758" ry="0.786783" fill="white"/>
<ellipse cx="284.02" cy="1119.56" rx="0.786761" ry="0.786783" fill="white"/>
<ellipse cx="402.035" cy="1119.56" rx="0.786793" ry="0.786783" fill="white"/>
<ellipse cx="520.05" cy="1119.56" rx="0.786761" ry="0.786783" fill="white"/>
<ellipse cx="638.061" cy="1119.56" rx="0.786761" ry="0.786783" fill="white"/>
<ellipse cx="756.077" cy="1119.56" rx="0.786826" ry="0.786783" fill="white"/>
<ellipse cx="874.091" cy="1119.56" rx="0.786653" ry="0.786783" fill="white"/>
<circle cx="992.103" cy="1119.56" r="0.786783" fill="white"/>
<ellipse cx="1110.12" cy="1119.56" rx="0.786739" ry="0.786783" fill="white"/>
<ellipse cx="1228.13" cy="1119.56" rx="0.786739" ry="0.786783" fill="white"/>
<ellipse cx="228.946" cy="1204.53" rx="0.786756" ry="0.786783" fill="white"/>
<ellipse cx="346.962" cy="1204.53" rx="0.78675" ry="0.786783" fill="white"/>
<ellipse cx="464.974" cy="1204.53" rx="0.786793" ry="0.786783" fill="white"/>
<ellipse cx="582.989" cy="1204.53" rx="0.786739" ry="0.786783" fill="white"/>
<ellipse cx="701.005" cy="1204.53" rx="0.786739" ry="0.786783" fill="white"/>
<ellipse cx="819.014" cy="1204.53" rx="0.786761" ry="0.786783" fill="white"/>
<circle cx="937.03" cy="1204.53" r="0.786783" fill="white"/>
<ellipse cx="1055.04" cy="1204.53" rx="0.786739" ry="0.786783" fill="white"/>
<circle cx="1173.06" cy="1204.53" r="0.786783" fill="white"/>
<ellipse cx="181.741" cy="1291.07" rx="0.786758" ry="0.786783" fill="white"/>
<ellipse cx="299.756" cy="1291.07" rx="0.786761" ry="0.786783" fill="white"/>
<ellipse cx="417.769" cy="1291.07" rx="0.786772" ry="0.786783" fill="white"/>
<ellipse cx="535.783" cy="1291.07" rx="0.786761" ry="0.786783" fill="white"/>
<ellipse cx="653.797" cy="1291.07" rx="0.786739" ry="0.786783" fill="white"/>
<ellipse cx="771.812" cy="1291.07" rx="0.786739" ry="0.786783" fill="white"/>
<circle cx="889.824" cy="1291.07" r="0.786783" fill="white"/>
<circle cx="1007.84" cy="1291.07" r="0.786783" fill="white"/>
<ellipse cx="1125.85" cy="1291.07" rx="0.786739" ry="0.786783" fill="white"/>
<circle cx="1243.87" cy="1291.07" r="0.786783" fill="white"/>
<ellipse cx="134.538" cy="1377.61" rx="0.786762" ry="0.786739" fill="white"/>
<ellipse cx="252.548" cy="1377.61" rx="0.786761" ry="0.786739" fill="white"/>
<ellipse cx="370.564" cy="1377.61" rx="0.786761" ry="0.786739" fill="white"/>
<ellipse cx="488.579" cy="1377.61" rx="0.786783" ry="0.786739" fill="white"/>
<ellipse cx="606.591" cy="1377.61" rx="0.786761" ry="0.786739" fill="white"/>
<ellipse cx="724.606" cy="1377.61" rx="0.786761" ry="0.786739" fill="white"/>
<circle cx="842.621" cy="1377.61" r="0.786739" fill="white"/>
<ellipse cx="960.633" cy="1377.61" rx="0.786783" ry="0.786739" fill="white"/>
<ellipse cx="1078.65" cy="1377.61" rx="0.786783" ry="0.786739" fill="white"/>
<circle cx="1196.66" cy="1377.61" r="0.786739" fill="white"/>
<ellipse cx="181.741" cy="1464.16" rx="0.786758" ry="0.786739" fill="white"/>
<ellipse cx="299.756" cy="1464.16" rx="0.786761" ry="0.786739" fill="white"/>
<ellipse cx="417.769" cy="1464.16" rx="0.786772" ry="0.786739" fill="white"/>
<ellipse cx="535.783" cy="1464.16" rx="0.786761" ry="0.786739" fill="white"/>
<circle cx="653.797" cy="1464.16" r="0.786739" fill="white"/>
<circle cx="771.812" cy="1464.16" r="0.786739" fill="white"/>
<ellipse cx="889.824" cy="1464.16" rx="0.786783" ry="0.786739" fill="white"/>
<ellipse cx="1007.84" cy="1464.16" rx="0.786783" ry="0.786739" fill="white"/>
<circle cx="1125.85" cy="1464.16" r="0.786739" fill="white"/>
<ellipse cx="150.272" cy="1542.83" rx="0.786758" ry="0.786739" fill="white"/>
<circle cx="268.286" cy="1542.83" r="0.786739" fill="white"/>
<ellipse cx="386.3" cy="1542.83" rx="0.786761" ry="0.786739" fill="white"/>
<ellipse cx="504.315" cy="1542.83" rx="0.786804" ry="0.786739" fill="white"/>
<ellipse cx="622.327" cy="1542.83" rx="0.786761" ry="0.786739" fill="white"/>
<ellipse cx="740.34" cy="1542.83" rx="0.786675" ry="0.786739" fill="white"/>
<ellipse cx="858.355" cy="1542.83" rx="0.786826" ry="0.786739" fill="white"/>
<ellipse cx="976.369" cy="1542.83" rx="0.786783" ry="0.786739" fill="white"/>
<ellipse cx="1094.38" cy="1542.83" rx="0.786783" ry="0.786739" fill="white"/>
<ellipse cx="1094.38" cy="1542.83" rx="0.786783" ry="0.786739" fill="white"/>
<ellipse cx="213.213" cy="1621.51" rx="0.786756" ry="0.786739" fill="white"/>
<ellipse cx="331.227" cy="1621.51" rx="0.786761" ry="0.786739" fill="white"/>
<ellipse cx="449.241" cy="1621.51" rx="0.78675" ry="0.786739" fill="white"/>
<ellipse cx="567.254" cy="1621.51" rx="0.786761" ry="0.786739" fill="white"/>
<ellipse cx="685.269" cy="1621.51" rx="0.786826" ry="0.786739" fill="white"/>
<ellipse cx="803.284" cy="1621.51" rx="0.786675" ry="0.786739" fill="white"/>
<ellipse cx="921.295" cy="1621.51" rx="0.786783" ry="0.786739" fill="white"/>
<circle cx="1039.31" cy="1621.51" r="0.786739" fill="white"/>
<circle cx="1157.32" cy="1621.51" r="0.786739" fill="white"/>
<ellipse cx="1243.87" cy="1464.16" rx="0.786783" ry="0.786739" fill="white"/>
<ellipse cx="98.3444" cy="40.1246" rx="0.786758" ry="0.78676" fill="white"/>
<ellipse cx="216.358" cy="40.1246" rx="0.786756" ry="0.78676" fill="white"/>
<ellipse cx="334.374" cy="40.1246" rx="0.78675" ry="0.78676" fill="white"/>
<ellipse cx="452.386" cy="40.1246" rx="0.786793" ry="0.78676" fill="white"/>
<ellipse cx="570.401" cy="40.1246" rx="0.786739" ry="0.78676" fill="white"/>
<ellipse cx="688.415" cy="40.1246" rx="0.786761" ry="0.78676" fill="white"/>
<ellipse cx="806.426" cy="40.1246" rx="0.786826" ry="0.78676" fill="white"/>
<ellipse cx="924.442" cy="40.1246" rx="0.786783" ry="0.78676" fill="white"/>
<ellipse cx="1042.46" cy="40.1246" rx="0.786739" ry="0.78676" fill="white"/>
<ellipse cx="1160.47" cy="40.1246" rx="0.786739" ry="0.78676" fill="white"/>
<ellipse cx="137.681" cy="118.801" rx="0.786758" ry="0.786756" fill="white"/>
<ellipse cx="255.696" cy="118.801" rx="0.786739" ry="0.786756" fill="white"/>
<ellipse cx="373.71" cy="118.801" rx="0.786761" ry="0.786756" fill="white"/>
<ellipse cx="491.723" cy="118.801" rx="0.786804" ry="0.786756" fill="white"/>
<ellipse cx="609.738" cy="118.801" rx="0.786761" ry="0.786756" fill="white"/>
<ellipse cx="727.753" cy="118.801" rx="0.786761" ry="0.786756" fill="white"/>
<ellipse cx="845.764" cy="118.801" rx="0.786783" ry="0.786756" fill="white"/>
<ellipse cx="963.778" cy="118.801" rx="0.786739" ry="0.786756" fill="white"/>
<ellipse cx="1081.79" cy="118.801" rx="0.786739" ry="0.786756" fill="white"/>
<ellipse cx="1199.8" cy="118.801" rx="0.786783" ry="0.786756" fill="white"/>
<ellipse cx="66.8727" cy="197.476" rx="0.786762" ry="0.786761" fill="white"/>
<ellipse cx="184.886" cy="197.476" rx="0.786766" ry="0.786761" fill="white"/>
<ellipse cx="302.902" cy="197.476" rx="0.786739" ry="0.786761" fill="white"/>
<ellipse cx="420.915" cy="197.476" rx="0.786804" ry="0.786761" fill="white"/>
<circle cx="538.929" cy="197.476" r="0.786761" fill="white"/>
<ellipse cx="656.945" cy="197.476" rx="0.786739" ry="0.786761" fill="white"/>
<ellipse cx="774.955" cy="197.476" rx="0.786783" ry="0.786761" fill="white"/>
<ellipse cx="892.97" cy="197.476" rx="0.786826" ry="0.786761" fill="white"/>
<ellipse cx="1010.98" cy="197.476" rx="0.786739" ry="0.786761" fill="white"/>
<ellipse cx="1129" cy="197.476" rx="0.786783" ry="0.786761" fill="white"/>
<ellipse cx="59.0065" cy="276.152" rx="0.786758" ry="0.786761" fill="white"/>
<ellipse cx="177.022" cy="276.152" rx="0.786758" ry="0.786761" fill="white"/>
<ellipse cx="295.033" cy="276.152" rx="0.786783" ry="0.786761" fill="white"/>
<ellipse cx="413.047" cy="276.152" rx="0.786729" ry="0.786761" fill="white"/>
<circle cx="531.063" cy="276.152" r="0.786761" fill="white"/>
<circle cx="649.075" cy="276.152" r="0.786761" fill="white"/>
<ellipse cx="767.091" cy="276.152" rx="0.786826" ry="0.786761" fill="white"/>
<ellipse cx="885.104" cy="276.152" rx="0.786783" ry="0.786761" fill="white"/>
<ellipse cx="1003.12" cy="276.152" rx="0.786739" ry="0.786761" fill="white"/>
<ellipse cx="1121.13" cy="276.152" rx="0.786739" ry="0.786761" fill="white"/>
<ellipse cx="114.081" cy="354.828" rx="0.786759" ry="0.786761" fill="white"/>
<circle cx="232.094" cy="354.828" r="0.786761" fill="white"/>
<circle cx="350.106" cy="354.828" r="0.786761" fill="white"/>
<ellipse cx="468.122" cy="354.828" rx="0.786729" ry="0.786761" fill="white"/>
<ellipse cx="586.135" cy="354.828" rx="0.786739" ry="0.786761" fill="white"/>
<ellipse cx="704.147" cy="354.828" rx="0.786783" ry="0.786761" fill="white"/>
<ellipse cx="822.163" cy="354.828" rx="0.786826" ry="0.786761" fill="white"/>
<ellipse cx="940.178" cy="354.828" rx="0.786739" ry="0.786761" fill="white"/>
<ellipse cx="1058.19" cy="354.828" rx="0.786783" ry="0.786761" fill="white"/>
<ellipse cx="1176.2" cy="354.828" rx="0.786739" ry="0.786761" fill="white"/>
<ellipse cx="90.4782" cy="433.504" rx="0.786759" ry="0.786761" fill="white"/>
<circle cx="208.489" cy="433.504" r="0.786761" fill="white"/>
<circle cx="326.504" cy="433.504" r="0.786761" fill="white"/>
<ellipse cx="444.519" cy="433.504" rx="0.78675" ry="0.786761" fill="white"/>
<circle cx="562.532" cy="433.504" r="0.786761" fill="white"/>
<ellipse cx="680.547" cy="433.504" rx="0.786826" ry="0.786761" fill="white"/>
<circle cx="798.56" cy="433.504" r="0.786761" fill="white"/>
<ellipse cx="916.572" cy="433.504" rx="0.786783" ry="0.786761" fill="white"/>
<ellipse cx="1034.59" cy="433.504" rx="0.786739" ry="0.786761" fill="white"/>
<ellipse cx="1152.6" cy="433.504" rx="0.786739" ry="0.786761" fill="white"/>
<ellipse cx="114.081" cy="512.18" rx="0.786759" ry="0.786761" fill="white"/>
<circle cx="232.094" cy="512.18" r="0.786761" fill="white"/>
<circle cx="350.106" cy="512.18" r="0.786761" fill="white"/>
<ellipse cx="468.122" cy="512.18" rx="0.786729" ry="0.786761" fill="white"/>
<ellipse cx="586.135" cy="512.18" rx="0.786739" ry="0.786761" fill="white"/>
<ellipse cx="704.147" cy="512.18" rx="0.786783" ry="0.786761" fill="white"/>
<ellipse cx="822.163" cy="512.18" rx="0.786826" ry="0.786761" fill="white"/>
<ellipse cx="940.178" cy="512.18" rx="0.786739" ry="0.786761" fill="white"/>
<ellipse cx="1058.19" cy="512.18" rx="0.786783" ry="0.786761" fill="white"/>
<ellipse cx="1176.2" cy="512.18" rx="0.786739" ry="0.786761" fill="white"/>
<ellipse cx="74.7418" cy="592.429" rx="0.786758" ry="0.786761" fill="white"/>
<ellipse cx="192.756" cy="592.429" rx="0.786748" ry="0.786761" fill="white"/>
<circle cx="310.769" cy="592.429" r="0.786761" fill="white"/>
<circle cx="428.784" cy="592.429" r="0.786761" fill="white"/>
<circle cx="546.798" cy="592.429" r="0.786761" fill="white"/>
<circle cx="664.809" cy="592.429" r="0.786761" fill="white"/>
<ellipse cx="782.824" cy="592.429" rx="0.786675" ry="0.786761" fill="white"/>
<ellipse cx="900.839" cy="592.429" rx="0.786739" ry="0.786761" fill="white"/>
<ellipse cx="1018.85" cy="592.429" rx="0.786739" ry="0.786761" fill="white"/>
<ellipse cx="1136.87" cy="592.429" rx="0.786783" ry="0.786761" fill="white"/>
<ellipse cx="121.95" cy="671.105" rx="0.786759" ry="0.786761" fill="white"/>
<circle cx="239.961" cy="671.105" r="0.786761" fill="white"/>
<circle cx="357.975" cy="671.105" r="0.786761" fill="white"/>
<circle cx="475.991" cy="671.105" r="0.786761" fill="white"/>
<circle cx="594.002" cy="671.105" r="0.786761" fill="white"/>
<ellipse cx="712.016" cy="671.105" rx="0.786675" ry="0.786761" fill="white"/>
<circle cx="830.032" cy="671.105" r="0.786761" fill="white"/>
<ellipse cx="948.044" cy="671.105" rx="0.786739" ry="0.786761" fill="white"/>
<ellipse cx="1066.06" cy="671.105" rx="0.786783" ry="0.786761" fill="white"/>
<ellipse cx="106.213" cy="749.781" rx="0.786759" ry="0.786739" fill="white"/>
<ellipse cx="224.226" cy="749.781" rx="0.786761" ry="0.786739" fill="white"/>
<ellipse cx="342.241" cy="749.781" rx="0.786761" ry="0.786739" fill="white"/>
<ellipse cx="460.255" cy="749.781" rx="0.786729" ry="0.786739" fill="white"/>
<ellipse cx="578.267" cy="749.781" rx="0.786761" ry="0.786739" fill="white"/>
<ellipse cx="696.281" cy="749.781" rx="0.786826" ry="0.786739" fill="white"/>
<ellipse cx="814.296" cy="749.781" rx="0.786761" ry="0.786739" fill="white"/>
<circle cx="932.308" cy="749.781" r="0.786739" fill="white"/>
<circle cx="1050.32" cy="749.781" r="0.786739" fill="white"/>
<ellipse cx="1168.34" cy="749.781" rx="0.786783" ry="0.786739" fill="white"/>
<ellipse cx="153.418" cy="828.457" rx="0.78676" ry="0.786783" fill="white"/>
<ellipse cx="271.432" cy="828.457" rx="0.786761" ry="0.786783" fill="white"/>
<ellipse cx="389.447" cy="828.457" rx="0.786761" ry="0.786783" fill="white"/>
<ellipse cx="507.458" cy="828.457" rx="0.786761" ry="0.786783" fill="white"/>
<ellipse cx="625.473" cy="828.457" rx="0.786761" ry="0.786783" fill="white"/>
<ellipse cx="743.488" cy="828.457" rx="0.786761" ry="0.786783" fill="white"/>
<ellipse cx="861.501" cy="828.457" rx="0.786653" ry="0.786783" fill="white"/>
<ellipse cx="979.514" cy="828.457" rx="0.786739" ry="0.786783" fill="white"/>
<circle cx="1097.53" cy="828.457" r="0.786783" fill="white"/>
<ellipse cx="1215.54" cy="828.457" rx="0.786739" ry="0.786783" fill="white"/>
<ellipse cx="90.4782" cy="907.132" rx="0.786759" ry="0.786739" fill="white"/>
<ellipse cx="208.489" cy="907.132" rx="0.786761" ry="0.786739" fill="white"/>
<ellipse cx="326.504" cy="907.132" rx="0.786761" ry="0.786739" fill="white"/>
<ellipse cx="444.519" cy="907.132" rx="0.78675" ry="0.786739" fill="white"/>
<ellipse cx="562.532" cy="907.132" rx="0.786761" ry="0.786739" fill="white"/>
<ellipse cx="680.547" cy="907.132" rx="0.786826" ry="0.786739" fill="white"/>
<ellipse cx="798.56" cy="907.132" rx="0.786761" ry="0.786739" fill="white"/>
<ellipse cx="916.572" cy="907.132" rx="0.786783" ry="0.786739" fill="white"/>
<circle cx="1034.59" cy="907.132" r="0.786739" fill="white"/>
<circle cx="1152.6" cy="907.132" r="0.786739" fill="white"/>
<ellipse cx="114.081" cy="985.808" rx="0.786759" ry="0.786783" fill="white"/>
<ellipse cx="232.094" cy="985.808" rx="0.786761" ry="0.786783" fill="white"/>
<ellipse cx="350.106" cy="985.808" rx="0.786761" ry="0.786783" fill="white"/>
<ellipse cx="468.122" cy="985.808" rx="0.786729" ry="0.786783" fill="white"/>
<ellipse cx="586.135" cy="985.808" rx="0.786739" ry="0.786783" fill="white"/>
<circle cx="704.147" cy="985.808" r="0.786783" fill="white"/>
<ellipse cx="822.163" cy="985.808" rx="0.786826" ry="0.786783" fill="white"/>
<ellipse cx="940.178" cy="985.808" rx="0.786739" ry="0.786783" fill="white"/>
<circle cx="1058.19" cy="985.808" r="0.786783" fill="white"/>
<ellipse cx="1176.2" cy="985.808" rx="0.786739" ry="0.786783" fill="white"/>
<ellipse cx="169.153" cy="1072.35" rx="0.786758" ry="0.786739" fill="white"/>
<circle cx="287.168" cy="1072.35" r="0.786739" fill="white"/>
<ellipse cx="405.181" cy="1072.35" rx="0.786772" ry="0.786739" fill="white"/>
<ellipse cx="523.194" cy="1072.35" rx="0.786761" ry="0.786739" fill="white"/>
<circle cx="641.21" cy="1072.35" r="0.786739" fill="white"/>
<ellipse cx="759.224" cy="1072.35" rx="0.786761" ry="0.786739" fill="white"/>
<ellipse cx="877.235" cy="1072.35" rx="0.786826" ry="0.786739" fill="white"/>
<ellipse cx="995.25" cy="1072.35" rx="0.786783" ry="0.786739" fill="white"/>
<circle cx="1113.27" cy="1072.35" r="0.786739" fill="white"/>
<circle cx="1231.28" cy="1072.35" r="0.786739" fill="white"/>
<ellipse cx="121.95" cy="1158.9" rx="0.786759" ry="0.786783" fill="white"/>
<ellipse cx="239.961" cy="1158.9" rx="0.786761" ry="0.786783" fill="white"/>
<ellipse cx="357.975" cy="1158.9" rx="0.786761" ry="0.786783" fill="white"/>
<ellipse cx="475.991" cy="1158.9" rx="0.786761" ry="0.786783" fill="white"/>
<ellipse cx="594.002" cy="1158.9" rx="0.786761" ry="0.786783" fill="white"/>
<ellipse cx="712.016" cy="1158.9" rx="0.786675" ry="0.786783" fill="white"/>
<ellipse cx="830.032" cy="1158.9" rx="0.786761" ry="0.786783" fill="white"/>
<ellipse cx="948.044" cy="1158.9" rx="0.786739" ry="0.786783" fill="white"/>
<circle cx="1066.06" cy="1158.9" r="0.786783" fill="white"/>
<ellipse cx="1184.07" cy="1158.9" rx="0.786739" ry="0.786783" fill="white"/>
<ellipse cx="184.886" cy="1243.87" rx="0.786766" ry="0.786696" fill="white"/>
<ellipse cx="302.902" cy="1243.87" rx="0.786739" ry="0.786696" fill="white"/>
<ellipse cx="420.915" cy="1243.87" rx="0.786804" ry="0.786696" fill="white"/>
<ellipse cx="538.929" cy="1243.87" rx="0.786761" ry="0.786696" fill="white"/>
<ellipse cx="656.945" cy="1243.87" rx="0.786739" ry="0.786696" fill="white"/>
<ellipse cx="774.955" cy="1243.87" rx="0.786783" ry="0.786696" fill="white"/>
<ellipse cx="892.97" cy="1243.87" rx="0.786826" ry="0.786696" fill="white"/>
<ellipse cx="1010.98" cy="1243.87" rx="0.786739" ry="0.786696" fill="white"/>
<ellipse cx="1129" cy="1243.87" rx="0.786783" ry="0.786696" fill="white"/>
<ellipse cx="137.681" cy="1330.41" rx="0.786758" ry="0.786783" fill="white"/>
<ellipse cx="255.696" cy="1330.41" rx="0.786739" ry="0.786783" fill="white"/>
<ellipse cx="373.71" cy="1330.41" rx="0.786761" ry="0.786783" fill="white"/>
<ellipse cx="491.723" cy="1330.41" rx="0.786804" ry="0.786783" fill="white"/>
<ellipse cx="609.738" cy="1330.41" rx="0.786761" ry="0.786783" fill="white"/>
<ellipse cx="727.753" cy="1330.41" rx="0.786761" ry="0.786783" fill="white"/>
<circle cx="845.764" cy="1330.41" r="0.786783" fill="white"/>
<ellipse cx="963.778" cy="1330.41" rx="0.786739" ry="0.786783" fill="white"/>
<ellipse cx="1081.79" cy="1330.41" rx="0.786739" ry="0.786783" fill="white"/>
<circle cx="1199.8" cy="1330.41" r="0.786783" fill="white"/>
<ellipse cx="90.4782" cy="1416.95" rx="0.786759" ry="0.786739" fill="white"/>
<ellipse cx="208.489" cy="1416.95" rx="0.786761" ry="0.786739" fill="white"/>
<ellipse cx="326.504" cy="1416.95" rx="0.786761" ry="0.786739" fill="white"/>
<ellipse cx="444.519" cy="1416.95" rx="0.78675" ry="0.786739" fill="white"/>
<ellipse cx="562.532" cy="1416.95" rx="0.786761" ry="0.786739" fill="white"/>
<ellipse cx="680.547" cy="1416.95" rx="0.786826" ry="0.786739" fill="white"/>
<ellipse cx="798.56" cy="1416.95" rx="0.786761" ry="0.786739" fill="white"/>
<ellipse cx="916.572" cy="1416.95" rx="0.786783" ry="0.786739" fill="white"/>
<circle cx="1034.59" cy="1416.95" r="0.786739" fill="white"/>
<circle cx="1152.6" cy="1416.95" r="0.786739" fill="white"/>
<ellipse cx="137.681" cy="1503.5" rx="0.786758" ry="0.786653" fill="white"/>
<ellipse cx="255.696" cy="1503.5" rx="0.786739" ry="0.786653" fill="white"/>
<ellipse cx="373.71" cy="1503.5" rx="0.786761" ry="0.786653" fill="white"/>
<ellipse cx="491.723" cy="1503.5" rx="0.786804" ry="0.786653" fill="white"/>
<ellipse cx="609.738" cy="1503.5" rx="0.786761" ry="0.786653" fill="white"/>
<ellipse cx="727.753" cy="1503.5" rx="0.786761" ry="0.786653" fill="white"/>
<ellipse cx="845.764" cy="1503.5" rx="0.786783" ry="0.786653" fill="white"/>
<ellipse cx="963.778" cy="1503.5" rx="0.786739" ry="0.786653" fill="white"/>
<ellipse cx="1081.79" cy="1503.5" rx="0.786739" ry="0.786653" fill="white"/>
<ellipse cx="106.213" cy="1582.17" rx="0.786759" ry="0.786739" fill="white"/>
<ellipse cx="224.226" cy="1582.17" rx="0.786761" ry="0.786739" fill="white"/>
<ellipse cx="342.241" cy="1582.17" rx="0.786761" ry="0.786739" fill="white"/>
<ellipse cx="460.255" cy="1582.17" rx="0.786729" ry="0.786739" fill="white"/>
<ellipse cx="578.267" cy="1582.17" rx="0.786761" ry="0.786739" fill="white"/>
<ellipse cx="696.281" cy="1582.17" rx="0.786826" ry="0.786739" fill="white"/>
<ellipse cx="814.296" cy="1582.17" rx="0.786761" ry="0.786739" fill="white"/>
<circle cx="932.308" cy="1582.17" r="0.786739" fill="white"/>
<circle cx="1050.32" cy="1582.17" r="0.786739" fill="white"/>
<circle cx="1050.32" cy="1582.17" r="0.786739" fill="white"/>
<ellipse cx="169.153" cy="1660.85" rx="0.786758" ry="0.786826" fill="white"/>
<ellipse cx="287.168" cy="1660.85" rx="0.786739" ry="0.786826" fill="white"/>
<ellipse cx="405.181" cy="1660.85" rx="0.786772" ry="0.786826" fill="white"/>
<ellipse cx="523.194" cy="1660.85" rx="0.786761" ry="0.786826" fill="white"/>
<ellipse cx="641.21" cy="1660.85" rx="0.786739" ry="0.786826" fill="white"/>
<ellipse cx="759.224" cy="1660.85" rx="0.786761" ry="0.786826" fill="white"/>
<circle cx="877.235" cy="1660.85" r="0.786826" fill="white"/>
<ellipse cx="995.25" cy="1660.85" rx="0.786783" ry="0.786826" fill="white"/>
<ellipse cx="1113.27" cy="1660.85" rx="0.786739" ry="0.786826" fill="white"/>
<ellipse cx="1199.8" cy="1503.5" rx="0.786783" ry="0.786653" fill="white"/>
<ellipse cx="181.742" cy="8.65419" rx="0.786758" ry="0.786759" fill="white"/>
<ellipse cx="299.756" cy="8.65419" rx="0.786761" ry="0.786759" fill="white"/>
<ellipse cx="417.77" cy="8.65419" rx="0.786772" ry="0.786759" fill="white"/>
<ellipse cx="535.783" cy="8.65419" rx="0.786761" ry="0.786759" fill="white"/>
<ellipse cx="653.798" cy="8.65419" rx="0.786739" ry="0.786759" fill="white"/>
<ellipse cx="771.812" cy="8.65419" rx="0.786739" ry="0.786759" fill="white"/>
<ellipse cx="889.824" cy="8.65419" rx="0.786783" ry="0.786759" fill="white"/>
<ellipse cx="1007.84" cy="8.65419" rx="0.786783" ry="0.786759" fill="white"/>
<ellipse cx="1125.85" cy="8.65419" rx="0.786739" ry="0.786759" fill="white"/>
<ellipse cx="1243.87" cy="8.65419" rx="0.786783" ry="0.786759" fill="white"/>
<circle cx="221.078" cy="87.3302" r="0.786761" fill="white"/>
<circle cx="339.093" cy="87.3302" r="0.786761" fill="white"/>
<ellipse cx="457.107" cy="87.3302" rx="0.78675" ry="0.786761" fill="white"/>
<circle cx="575.121" cy="87.3302" r="0.786761" fill="white"/>
<circle cx="693.134" cy="87.3302" r="0.786761" fill="white"/>
<ellipse cx="811.15" cy="87.3302" rx="0.786675" ry="0.786761" fill="white"/>
<ellipse cx="929.162" cy="87.3302" rx="0.786739" ry="0.786761" fill="white"/>
<ellipse cx="1047.18" cy="87.3302" rx="0.786783" ry="0.786761" fill="white"/>
<ellipse cx="1165.19" cy="87.3302" rx="0.786783" ry="0.786761" fill="white"/>
<ellipse cx="1283.2" cy="87.3302" rx="0.786783" ry="0.786761" fill="white"/>
<ellipse cx="150.27" cy="166.006" rx="0.786758" ry="0.786761" fill="white"/>
<ellipse cx="268.284" cy="166.006" rx="0.786739" ry="0.786761" fill="white"/>
<circle cx="386.298" cy="166.006" r="0.786761" fill="white"/>
<ellipse cx="504.312" cy="166.006" rx="0.786804" ry="0.786761" fill="white"/>
<circle cx="622.327" cy="166.006" r="0.786761" fill="white"/>
<ellipse cx="740.341" cy="166.006" rx="0.786675" ry="0.786761" fill="white"/>
<ellipse cx="858.352" cy="166.006" rx="0.786826" ry="0.786761" fill="white"/>
<ellipse cx="976.367" cy="166.006" rx="0.786783" ry="0.786761" fill="white"/>
<ellipse cx="1094.38" cy="166.006" rx="0.786783" ry="0.786761" fill="white"/>
<ellipse cx="1212.39" cy="166.006" rx="0.786739" ry="0.786761" fill="white"/>
<ellipse cx="142.404" cy="244.682" rx="0.78676" ry="0.786761" fill="white"/>
<circle cx="260.42" cy="244.682" r="0.786761" fill="white"/>
<ellipse cx="378.429" cy="244.682" rx="0.78675" ry="0.786761" fill="white"/>
<ellipse cx="496.445" cy="244.682" rx="0.786718" ry="0.786761" fill="white"/>
<circle cx="614.461" cy="244.682" r="0.786761" fill="white"/>
<ellipse cx="732.472" cy="244.682" rx="0.786675" ry="0.786761" fill="white"/>
<ellipse cx="850.487" cy="244.682" rx="0.786783" ry="0.786761" fill="white"/>
<ellipse cx="968.502" cy="244.682" rx="0.786739" ry="0.786761" fill="white"/>
<ellipse cx="1086.51" cy="244.682" rx="0.786739" ry="0.786761" fill="white"/>
<ellipse cx="1204.53" cy="244.682" rx="0.786783" ry="0.786761" fill="white"/>
<ellipse cx="197.478" cy="323.358" rx="0.786766" ry="0.786761" fill="white"/>
<circle cx="315.492" cy="323.358" r="0.786761" fill="white"/>
<ellipse cx="433.504" cy="323.358" rx="0.786793" ry="0.786761" fill="white"/>
<circle cx="551.518" cy="323.358" r="0.786761" fill="white"/>
<ellipse cx="669.533" cy="323.358" rx="0.786739" ry="0.786761" fill="white"/>
<ellipse cx="787.545" cy="323.358" rx="0.786826" ry="0.786761" fill="white"/>
<ellipse cx="905.56" cy="323.358" rx="0.786783" ry="0.786761" fill="white"/>
<ellipse cx="1023.57" cy="323.358" rx="0.786783" ry="0.786761" fill="white"/>
<ellipse cx="1141.59" cy="323.358" rx="0.786739" ry="0.786761" fill="white"/>
<ellipse cx="1259.6" cy="323.358" rx="0.787042" ry="0.786761" fill="white"/>
<circle cx="173.876" cy="402.034" r="0.786761" fill="white"/>
<circle cx="291.886" cy="402.034" r="0.786761" fill="white"/>
<ellipse cx="409.901" cy="402.034" rx="0.786729" ry="0.786761" fill="white"/>
<ellipse cx="527.917" cy="402.034" rx="0.786739" ry="0.786761" fill="white"/>
<circle cx="645.929" cy="402.034" r="0.786761" fill="white"/>
<circle cx="763.944" cy="402.034" r="0.786761" fill="white"/>
<ellipse cx="881.958" cy="402.034" rx="0.786696" ry="0.786761" fill="white"/>
<ellipse cx="999.969" cy="402.034" rx="0.786739" ry="0.786761" fill="white"/>
<ellipse cx="1117.98" cy="402.034" rx="0.786783" ry="0.786761" fill="white"/>
<ellipse cx="1236" cy="402.034" rx="0.786783" ry="0.786761" fill="white"/>
<ellipse cx="197.478" cy="480.71" rx="0.786766" ry="0.786761" fill="white"/>
<circle cx="315.492" cy="480.71" r="0.786761" fill="white"/>
<ellipse cx="433.504" cy="480.71" rx="0.786793" ry="0.786761" fill="white"/>
<circle cx="551.518" cy="480.71" r="0.786761" fill="white"/>
<ellipse cx="669.533" cy="480.71" rx="0.786739" ry="0.786761" fill="white"/>
<ellipse cx="787.545" cy="480.71" rx="0.786826" ry="0.786761" fill="white"/>
<ellipse cx="905.56" cy="480.71" rx="0.786783" ry="0.786761" fill="white"/>
<ellipse cx="1023.57" cy="480.71" rx="0.786783" ry="0.786761" fill="white"/>
<ellipse cx="1141.59" cy="480.71" rx="0.786739" ry="0.786761" fill="white"/>
<ellipse cx="1259.6" cy="480.71" rx="0.787042" ry="0.786761" fill="white"/>
<circle cx="158.139" cy="560.959" r="0.786761" fill="white"/>
<ellipse cx="276.153" cy="560.959" rx="0.786777" ry="0.786761" fill="white"/>
<circle cx="394.166" cy="560.959" r="0.786761" fill="white"/>
<ellipse cx="512.181" cy="560.959" rx="0.786739" ry="0.786761" fill="white"/>
<ellipse cx="630.196" cy="560.959" rx="0.786783" ry="0.786761" fill="white"/>
<circle cx="748.208" cy="560.959" r="0.786761" fill="white"/>
<ellipse cx="866.221" cy="560.959" rx="0.786783" ry="0.786761" fill="white"/>
<ellipse cx="984.237" cy="560.959" rx="0.786739" ry="0.786761" fill="white"/>
<ellipse cx="1102.25" cy="560.959" rx="0.786783" ry="0.786761" fill="white"/>
<ellipse cx="1220.26" cy="560.959" rx="0.786783" ry="0.786761" fill="white"/>
<circle cx="205.347" cy="639.634" r="0.786761" fill="white"/>
<circle cx="323.358" cy="639.634" r="0.786761" fill="white"/>
<ellipse cx="441.373" cy="639.634" rx="0.78675" ry="0.786761" fill="white"/>
<ellipse cx="559.388" cy="639.634" rx="0.786783" ry="0.786761" fill="white"/>
<circle cx="677.398" cy="639.634" r="0.786761" fill="white"/>
<circle cx="795.414" cy="639.634" r="0.786761" fill="white"/>
<ellipse cx="913.429" cy="639.634" rx="0.786739" ry="0.786761" fill="white"/>
<ellipse cx="1031.44" cy="639.634" rx="0.786783" ry="0.786761" fill="white"/>
<ellipse cx="1149.45" cy="639.634" rx="0.786783" ry="0.786761" fill="white"/>
<ellipse cx="189.61" cy="718.31" rx="0.78675" ry="0.786761" fill="white"/>
<ellipse cx="307.624" cy="718.31" rx="0.786772" ry="0.786761" fill="white"/>
<ellipse cx="425.637" cy="718.31" rx="0.786718" ry="0.786761" fill="white"/>
<circle cx="543.653" cy="718.31" r="0.786761" fill="white"/>
<circle cx="661.665" cy="718.31" r="0.786761" fill="white"/>
<circle cx="779.678" cy="718.31" r="0.786761" fill="white"/>
<ellipse cx="897.693" cy="718.31" rx="0.786826" ry="0.786761" fill="white"/>
<ellipse cx="1015.71" cy="718.31" rx="0.786739" ry="0.786761" fill="white"/>
<ellipse cx="1133.72" cy="718.31" rx="0.786783" ry="0.786761" fill="white"/>
<ellipse cx="1251.73" cy="718.31" rx="0.78661" ry="0.786761" fill="white"/>
<ellipse cx="236.814" cy="796.986" rx="0.786761" ry="0.786739" fill="white"/>
<ellipse cx="354.83" cy="796.986" rx="0.78675" ry="0.786739" fill="white"/>
<ellipse cx="472.844" cy="796.986" rx="0.786793" ry="0.786739" fill="white"/>
<ellipse cx="590.855" cy="796.986" rx="0.786761" ry="0.786739" fill="white"/>
<ellipse cx="708.87" cy="796.986" rx="0.786761" ry="0.786739" fill="white"/>
<ellipse cx="826.885" cy="796.986" rx="0.786826" ry="0.786739" fill="white"/>
<circle cx="944.898" cy="796.986" r="0.786739" fill="white"/>
<ellipse cx="1062.91" cy="796.986" rx="0.786783" ry="0.786739" fill="white"/>
<circle cx="1180.93" cy="796.986" r="0.786739" fill="white"/>
<ellipse cx="1298.94" cy="795.413" rx="0.786567" ry="0.786739" fill="white"/>
<ellipse cx="173.876" cy="875.662" rx="0.786761" ry="0.786783" fill="white"/>
<ellipse cx="291.886" cy="875.662" rx="0.786761" ry="0.786783" fill="white"/>
<ellipse cx="409.901" cy="875.662" rx="0.786729" ry="0.786783" fill="white"/>
<ellipse cx="527.917" cy="875.662" rx="0.786739" ry="0.786783" fill="white"/>
<ellipse cx="645.929" cy="875.662" rx="0.786761" ry="0.786783" fill="white"/>
<ellipse cx="763.944" cy="875.662" rx="0.786761" ry="0.786783" fill="white"/>
<ellipse cx="881.958" cy="875.662" rx="0.786696" ry="0.786783" fill="white"/>
<ellipse cx="999.969" cy="875.662" rx="0.786739" ry="0.786783" fill="white"/>
<circle cx="1117.98" cy="875.662" r="0.786783" fill="white"/>
<circle cx="1236" cy="875.662" r="0.786783" fill="white"/>
<ellipse cx="197.478" cy="954.338" rx="0.786766" ry="0.786783" fill="white"/>
<ellipse cx="315.492" cy="954.338" rx="0.786761" ry="0.786783" fill="white"/>
<ellipse cx="433.504" cy="954.338" rx="0.786793" ry="0.786783" fill="white"/>
<ellipse cx="551.518" cy="954.338" rx="0.786761" ry="0.786783" fill="white"/>
<ellipse cx="669.533" cy="954.338" rx="0.786739" ry="0.786783" fill="white"/>
<ellipse cx="787.545" cy="954.338" rx="0.786826" ry="0.786783" fill="white"/>
<circle cx="905.56" cy="954.338" r="0.786783" fill="white"/>
<circle cx="1023.57" cy="954.338" r="0.786783" fill="white"/>
<ellipse cx="1141.59" cy="954.338" rx="0.786739" ry="0.786783" fill="white"/>
<ellipse cx="1259.6" cy="954.338" rx="0.787042" ry="0.786783" fill="white"/>
<ellipse cx="252.549" cy="1040.88" rx="0.786761" ry="0.786739" fill="white"/>
<ellipse cx="370.565" cy="1040.88" rx="0.786761" ry="0.786739" fill="white"/>
<ellipse cx="488.579" cy="1040.88" rx="0.786783" ry="0.786739" fill="white"/>
<ellipse cx="606.591" cy="1040.88" rx="0.786761" ry="0.786739" fill="white"/>
<ellipse cx="724.606" cy="1040.88" rx="0.786761" ry="0.786739" fill="white"/>
<circle cx="842.622" cy="1040.88" r="0.786739" fill="white"/>
<ellipse cx="960.633" cy="1040.88" rx="0.786783" ry="0.786739" fill="white"/>
<ellipse cx="1078.65" cy="1040.88" rx="0.786783" ry="0.786739" fill="white"/>
<circle cx="1196.66" cy="1040.88" r="0.786739" fill="white"/>
<circle cx="1314.67" cy="1039.31" r="0.786783" fill="white"/>
<ellipse cx="205.347" cy="1127.42" rx="0.786761" ry="0.786739" fill="white"/>
<ellipse cx="323.358" cy="1127.42" rx="0.786761" ry="0.786739" fill="white"/>
<ellipse cx="441.373" cy="1127.42" rx="0.78675" ry="0.786739" fill="white"/>
<ellipse cx="559.388" cy="1127.42" rx="0.786783" ry="0.786739" fill="white"/>
<ellipse cx="677.398" cy="1127.42" rx="0.786761" ry="0.786739" fill="white"/>
<ellipse cx="795.414" cy="1127.42" rx="0.786761" ry="0.786739" fill="white"/>
<circle cx="913.429" cy="1127.42" r="0.786739" fill="white"/>
<ellipse cx="1031.44" cy="1127.42" rx="0.786783" ry="0.786739" fill="white"/>
<ellipse cx="1149.45" cy="1127.42" rx="0.786783" ry="0.786739" fill="white"/>
<ellipse cx="1267.47" cy="1127.42" rx="0.786783" ry="0.786739" fill="white"/>
<circle cx="268.284" cy="1212.4" r="0.786739" fill="white"/>
<ellipse cx="386.298" cy="1212.4" rx="0.786761" ry="0.786739" fill="white"/>
<ellipse cx="504.312" cy="1212.4" rx="0.786804" ry="0.786739" fill="white"/>
<ellipse cx="622.327" cy="1212.4" rx="0.786761" ry="0.786739" fill="white"/>
<ellipse cx="740.341" cy="1212.4" rx="0.786675" ry="0.786739" fill="white"/>
<ellipse cx="858.352" cy="1212.4" rx="0.786826" ry="0.786739" fill="white"/>
<ellipse cx="976.367" cy="1212.4" rx="0.786783" ry="0.786739" fill="white"/>
<ellipse cx="1094.38" cy="1212.4" rx="0.786783" ry="0.786739" fill="white"/>
<circle cx="1212.39" cy="1212.4" r="0.786739" fill="white"/>
<ellipse cx="221.078" cy="1298.94" rx="0.786761" ry="0.786783" fill="white"/>
<ellipse cx="339.093" cy="1298.94" rx="0.786761" ry="0.786783" fill="white"/>
<ellipse cx="457.107" cy="1298.94" rx="0.78675" ry="0.786783" fill="white"/>
<ellipse cx="575.121" cy="1298.94" rx="0.786761" ry="0.786783" fill="white"/>
<ellipse cx="693.134" cy="1298.94" rx="0.786761" ry="0.786783" fill="white"/>
<ellipse cx="811.15" cy="1298.94" rx="0.786675" ry="0.786783" fill="white"/>
<ellipse cx="929.162" cy="1298.94" rx="0.786739" ry="0.786783" fill="white"/>
<circle cx="1047.18" cy="1298.94" r="0.786783" fill="white"/>
<circle cx="1165.19" cy="1298.94" r="0.786783" fill="white"/>
<circle cx="1283.2" cy="1298.94" r="0.786783" fill="white"/>
<ellipse cx="173.876" cy="1385.48" rx="0.786761" ry="0.786783" fill="white"/>
<ellipse cx="291.886" cy="1385.48" rx="0.786761" ry="0.786783" fill="white"/>
<ellipse cx="409.901" cy="1385.48" rx="0.786729" ry="0.786783" fill="white"/>
<ellipse cx="527.917" cy="1385.48" rx="0.786739" ry="0.786783" fill="white"/>
<ellipse cx="645.929" cy="1385.48" rx="0.786761" ry="0.786783" fill="white"/>
<ellipse cx="763.944" cy="1385.48" rx="0.786761" ry="0.786783" fill="white"/>
<ellipse cx="881.958" cy="1385.48" rx="0.786696" ry="0.786783" fill="white"/>
<ellipse cx="999.969" cy="1385.48" rx="0.786739" ry="0.786783" fill="white"/>
<circle cx="1117.98" cy="1385.48" r="0.786783" fill="white"/>
<circle cx="1236" cy="1385.48" r="0.786783" fill="white"/>
<ellipse cx="221.078" cy="1472.03" rx="0.786761" ry="0.786739" fill="white"/>
<ellipse cx="339.093" cy="1472.03" rx="0.786761" ry="0.786739" fill="white"/>
<ellipse cx="457.107" cy="1472.03" rx="0.78675" ry="0.786739" fill="white"/>
<ellipse cx="575.121" cy="1472.03" rx="0.786761" ry="0.786739" fill="white"/>
<ellipse cx="693.134" cy="1472.03" rx="0.786761" ry="0.786739" fill="white"/>
<ellipse cx="811.15" cy="1472.03" rx="0.786675" ry="0.786739" fill="white"/>
<circle cx="929.162" cy="1472.03" r="0.786739" fill="white"/>
<ellipse cx="1047.18" cy="1472.03" rx="0.786783" ry="0.786739" fill="white"/>
<ellipse cx="1165.19" cy="1472.03" rx="0.786783" ry="0.786739" fill="white"/>
<ellipse cx="189.61" cy="1550.7" rx="0.78675" ry="0.786739" fill="white"/>
<ellipse cx="307.624" cy="1550.7" rx="0.786772" ry="0.786739" fill="white"/>
<ellipse cx="425.637" cy="1550.7" rx="0.786718" ry="0.786739" fill="white"/>
<ellipse cx="543.653" cy="1550.7" rx="0.786761" ry="0.786739" fill="white"/>
<ellipse cx="661.665" cy="1550.7" rx="0.786761" ry="0.786739" fill="white"/>
<ellipse cx="779.678" cy="1550.7" rx="0.786761" ry="0.786739" fill="white"/>
<ellipse cx="897.693" cy="1550.7" rx="0.786826" ry="0.786739" fill="white"/>
<circle cx="1015.71" cy="1550.7" r="0.786739" fill="white"/>
<ellipse cx="1133.72" cy="1550.7" rx="0.786783" ry="0.786739" fill="white"/>
<ellipse cx="1133.72" cy="1550.7" rx="0.786783" ry="0.786739" fill="white"/>
<ellipse cx="252.549" cy="1629.38" rx="0.786761" ry="0.786826" fill="white"/>
<ellipse cx="370.565" cy="1629.38" rx="0.786761" ry="0.786826" fill="white"/>
<ellipse cx="488.579" cy="1629.38" rx="0.786783" ry="0.786826" fill="white"/>
<ellipse cx="606.591" cy="1629.38" rx="0.786761" ry="0.786826" fill="white"/>
<ellipse cx="724.606" cy="1629.38" rx="0.786761" ry="0.786826" fill="white"/>
<ellipse cx="842.622" cy="1629.38" rx="0.786739" ry="0.786826" fill="white"/>
<ellipse cx="960.633" cy="1629.38" rx="0.786783" ry="0.786826" fill="white"/>
<ellipse cx="1078.65" cy="1629.38" rx="0.786783" ry="0.786826" fill="white"/>
<ellipse cx="1196.66" cy="1629.38" rx="0.786739" ry="0.786826" fill="white"/>
<ellipse cx="1283.2" cy="1472.03" rx="0.786783" ry="0.786739" fill="white"/>
<ellipse cx="132.962" cy="33.044" rx="1.57352" ry="1.57352" fill="white"/>
<ellipse cx="368.988" cy="40.9114" rx="1.57351" ry="1.57352" fill="white"/>
<ellipse cx="605.019" cy="33.044" rx="1.5735" ry="1.57352" fill="white"/>
<ellipse cx="841.044" cy="25.1763" rx="1.57361" ry="1.57352" fill="white"/>
<ellipse cx="1077.07" cy="33.044" rx="1.57352" ry="1.57352" fill="white"/>
<ellipse cx="1313.1" cy="40.9114" rx="1.57335" ry="1.57352" fill="white"/>
<ellipse cx="164.433" cy="190.396" rx="1.57352" ry="1.57351" fill="white"/>
<ellipse cx="400.459" cy="198.263" rx="1.57348" ry="1.57352" fill="white"/>
<ellipse cx="636.488" cy="190.396" rx="1.57352" ry="1.57351" fill="white"/>
<ellipse cx="872.516" cy="182.528" rx="1.57348" ry="1.57351" fill="white"/>
<ellipse cx="1108.54" cy="190.396" rx="1.57352" ry="1.57351" fill="white"/>
<ellipse cx="1344.57" cy="198.263" rx="1.57365" ry="1.57352" fill="white"/>
<ellipse cx="117.227" cy="347.747" rx="1.57352" ry="1.57352" fill="white"/>
<ellipse cx="353.252" cy="355.615" rx="1.57352" ry="1.57351" fill="white"/>
<circle cx="589.283" cy="347.747" r="1.57352" fill="white"/>
<ellipse cx="825.309" cy="339.88" rx="1.57346" ry="1.57351" fill="white"/>
<circle cx="1061.34" cy="347.747" r="1.57352" fill="white"/>
<ellipse cx="1297.36" cy="355.615" rx="1.57335" ry="1.57351" fill="white"/>
<ellipse cx="211.636" cy="505.099" rx="1.57351" ry="1.57352" fill="white"/>
<ellipse cx="447.665" cy="512.967" rx="1.57348" ry="1.57352" fill="white"/>
<ellipse cx="683.693" cy="505.099" rx="1.57346" ry="1.57352" fill="white"/>
<circle cx="919.718" cy="497.232" r="1.57352" fill="white"/>
<ellipse cx="1155.75" cy="505.099" rx="1.57348" ry="1.57352" fill="white"/>
<circle cx="1391.78" cy="512.967" r="1.57352" fill="white"/>
<ellipse cx="172.299" cy="664.024" rx="1.57352" ry="1.57352" fill="white"/>
<circle cx="408.328" cy="671.892" r="1.57352" fill="white"/>
<circle cx="644.356" cy="664.024" r="1.57352" fill="white"/>
<ellipse cx="880.382" cy="656.156" rx="1.57357" ry="1.5735" fill="white"/>
<ellipse cx="1116.41" cy="664.024" rx="1.57348" ry="1.57352" fill="white"/>
<circle cx="1352.44" cy="670.319" r="1.57352" fill="white"/>
<ellipse cx="132.962" cy="821.376" rx="1.57352" ry="1.57352" fill="white"/>
<ellipse cx="368.988" cy="829.243" rx="1.57351" ry="1.57352" fill="white"/>
<ellipse cx="605.019" cy="821.376" rx="1.5735" ry="1.57352" fill="white"/>
<ellipse cx="841.044" cy="813.508" rx="1.57361" ry="1.57352" fill="white"/>
<circle cx="1077.07" cy="821.376" r="1.57352" fill="white"/>
<ellipse cx="1313.1" cy="827.67" rx="1.57335" ry="1.57352" fill="white"/>
<ellipse cx="258.842" cy="978.727" rx="1.57353" ry="1.57352" fill="white"/>
<ellipse cx="494.869" cy="986.595" rx="1.57352" ry="1.57357" fill="white"/>
<ellipse cx="730.899" cy="978.727" rx="1.5735" ry="1.57352" fill="white"/>
<circle cx="966.925" cy="970.86" r="1.57352" fill="white"/>
<circle cx="1202.95" cy="978.727" r="1.57352" fill="white"/>
<ellipse cx="1438.98" cy="985.022" rx="1.57335" ry="1.57352" fill="white"/>
<ellipse cx="111.719" cy="1136.08" rx="1.57352" ry="1.57352" fill="white"/>
<ellipse cx="347.744" cy="1143.95" rx="1.57351" ry="1.57352" fill="white"/>
<circle cx="583.776" cy="1136.08" r="1.57352" fill="white"/>
<circle cx="819.801" cy="1128.21" r="1.57352" fill="white"/>
<circle cx="1055.83" cy="1136.08" r="1.57352" fill="white"/>
<ellipse cx="1291.86" cy="1142.37" rx="1.57339" ry="1.57357" fill="white"/>
<ellipse cx="129.814" cy="1271.4" rx="1.57351" ry="1.57352" fill="white"/>
<circle cx="365.843" cy="1279.27" r="1.57352" fill="white"/>
<circle cx="601.87" cy="1271.4" r="1.57352" fill="white"/>
<ellipse cx="837.896" cy="1263.53" rx="1.57348" ry="1.57352" fill="white"/>
<circle cx="1073.93" cy="1271.4" r="1.57352" fill="white"/>
<circle cx="1309.95" cy="1279.27" r="1.57352" fill="white"/>
<ellipse cx="187.249" cy="1439.77" rx="1.57352" ry="1.57352" fill="white"/>
<circle cx="423.276" cy="1447.64" r="1.57348" fill="white"/>
<circle cx="659.303" cy="1439.77" r="1.57352" fill="white"/>
<ellipse cx="895.331" cy="1431.9" rx="1.57344" ry="1.57352" fill="white"/>
<ellipse cx="1131.36" cy="1439.77" rx="1.57348" ry="1.57352" fill="white"/>
<ellipse cx="1367.38" cy="1447.64" rx="1.57357" ry="1.57348" fill="white"/>
<ellipse cx="134.534" cy="1608.14" rx="1.57352" ry="1.57357" fill="white"/>
<ellipse cx="370.563" cy="1616" rx="1.57351" ry="1.57348" fill="white"/>
<ellipse cx="606.591" cy="1608.14" rx="1.57352" ry="1.57357" fill="white"/>
<ellipse cx="842.618" cy="1600.27" rx="1.57352" ry="1.57348" fill="white"/>
<ellipse cx="1078.64" cy="1608.14" rx="1.57352" ry="1.57357" fill="white"/>
<ellipse cx="1191.94" cy="1579.81" rx="1.57352" ry="1.57357" fill="white"/>
<ellipse cx="1314.67" cy="1616" rx="1.57365" ry="1.57348" fill="white"/>
<circle cx="22.8167" cy="119.587" r="1.57352" fill="white"/>
<ellipse cx="258.842" cy="127.455" rx="1.57353" ry="1.57352" fill="white"/>
<ellipse cx="494.871" cy="119.587" rx="1.57352" ry="1.57352" fill="white"/>
<ellipse cx="730.899" cy="111.72" rx="1.5735" ry="1.57352" fill="white"/>
<ellipse cx="966.925" cy="119.587" rx="1.57352" ry="1.57352" fill="white"/>
<ellipse cx="1202.95" cy="127.455" rx="1.57352" ry="1.57352" fill="white"/>
<ellipse cx="54.2874" cy="276.939" rx="1.57352" ry="1.57351" fill="white"/>
<ellipse cx="290.314" cy="284.807" rx="1.5735" ry="1.57351" fill="white"/>
<ellipse cx="526.341" cy="276.939" rx="1.5735" ry="1.57351" fill="white"/>
<ellipse cx="762.37" cy="269.072" rx="1.5735" ry="1.57352" fill="white"/>
<ellipse cx="998.396" cy="276.939" rx="1.57352" ry="1.57351" fill="white"/>
<ellipse cx="1234.42" cy="284.807" rx="1.57357" ry="1.57351" fill="white"/>
<ellipse cx="7.08133" cy="434.291" rx="1.57352" ry="1.57352" fill="white"/>
<ellipse cx="243.107" cy="442.159" rx="1.57352" ry="1.57354" fill="white"/>
<circle cx="479.137" cy="434.291" r="1.57352" fill="white"/>
<ellipse cx="715.163" cy="426.423" rx="1.57359" ry="1.57352" fill="white"/>
<ellipse cx="951.19" cy="434.291" rx="1.57357" ry="1.57352" fill="white"/>
<ellipse cx="1187.22" cy="442.159" rx="1.57348" ry="1.57354" fill="white"/>
<ellipse cx="101.491" cy="593.216" rx="1.57352" ry="1.57352" fill="white"/>
<ellipse cx="337.52" cy="601.083" rx="1.57351" ry="1.5735" fill="white"/>
<circle cx="573.547" cy="593.216" r="1.57352" fill="white"/>
<ellipse cx="809.573" cy="585.348" rx="1.57354" ry="1.57352" fill="white"/>
<ellipse cx="1045.6" cy="593.216" rx="1.57348" ry="1.57352" fill="white"/>
<circle cx="1281.63" cy="599.51" r="1.57352" fill="white"/>
<ellipse cx="62.1526" cy="750.568" rx="1.57352" ry="1.57348" fill="white"/>
<ellipse cx="298.183" cy="758.435" rx="1.57351" ry="1.57352" fill="white"/>
<ellipse cx="534.209" cy="750.568" rx="1.5735" ry="1.57348" fill="white"/>
<ellipse cx="770.237" cy="742.7" rx="1.57359" ry="1.57352" fill="white"/>
<ellipse cx="1006.26" cy="750.568" rx="1.57352" ry="1.57348" fill="white"/>
<circle cx="1242.29" cy="758.435" r="1.57352" fill="white"/>
<ellipse cx="22.8167" cy="906.346" rx="1.57352" ry="1.57352" fill="white"/>
<ellipse cx="258.842" cy="915.787" rx="1.57353" ry="1.57352" fill="white"/>
<circle cx="494.871" cy="907.919" r="1.57352" fill="white"/>
<ellipse cx="730.899" cy="900.052" rx="1.5735" ry="1.57352" fill="white"/>
<circle cx="966.925" cy="907.919" r="1.57352" fill="white"/>
<circle cx="1202.95" cy="915.787" r="1.57352" fill="white"/>
<ellipse cx="148.697" cy="1065.27" rx="1.57352" ry="1.57348" fill="white"/>
<circle cx="384.724" cy="1073.14" r="1.57352" fill="white"/>
<ellipse cx="620.753" cy="1065.27" rx="1.57352" ry="1.57348" fill="white"/>
<ellipse cx="856.78" cy="1057.4" rx="1.57361" ry="1.57352" fill="white"/>
<ellipse cx="1092.81" cy="1065.27" rx="1.57357" ry="1.57348" fill="white"/>
<circle cx="1328.84" cy="1071.57" r="1.57352" fill="white"/>
<ellipse cx="1.57352" cy="1221.05" rx="1.57352" ry="1.57352" fill="white"/>
<ellipse cx="237.599" cy="1228.92" rx="1.57352" ry="1.57352" fill="white"/>
<ellipse cx="473.63" cy="1221.05" rx="1.57354" ry="1.57352" fill="white"/>
<ellipse cx="709.657" cy="1213.18" rx="1.57359" ry="1.57352" fill="white"/>
<circle cx="945.682" cy="1221.05" r="1.57352" fill="white"/>
<circle cx="1181.71" cy="1228.92" r="1.57352" fill="white"/>
<ellipse cx="19.6682" cy="1357.95" rx="1.57352" ry="1.57348" fill="white"/>
<ellipse cx="255.697" cy="1365.81" rx="1.5735" ry="1.57352" fill="white"/>
<ellipse cx="491.725" cy="1357.95" rx="1.5735" ry="1.57348" fill="white"/>
<ellipse cx="727.75" cy="1350.08" rx="1.57359" ry="1.57357" fill="white"/>
<ellipse cx="963.781" cy="1357.95" rx="1.57352" ry="1.57348" fill="white"/>
<circle cx="1199.81" cy="1365.81" r="1.57352" fill="white"/>
<ellipse cx="77.1028" cy="1526.31" rx="1.57351" ry="1.57348" fill="white"/>
<ellipse cx="313.13" cy="1534.18" rx="1.57351" ry="1.57348" fill="white"/>
<ellipse cx="549.157" cy="1526.31" rx="1.57352" ry="1.57348" fill="white"/>
<ellipse cx="785.186" cy="1518.44" rx="1.57346" ry="1.57348" fill="white"/>
<ellipse cx="1021.21" cy="1526.31" rx="1.57352" ry="1.57348" fill="white"/>
<ellipse cx="1219.47" cy="1673.59" rx="1.57352" ry="1.57348" fill="white"/>
<ellipse cx="121.949" cy="1681.62" rx="0.786758" ry="0.786739" fill="white"/>
<circle cx="239.961" cy="1681.62" r="0.786739" fill="white"/>
<ellipse cx="357.975" cy="1681.62" rx="0.786761" ry="0.786739" fill="white"/>
<ellipse cx="475.99" cy="1681.62" rx="0.786804" ry="0.786739" fill="white"/>
<ellipse cx="594.003" cy="1681.62" rx="0.786761" ry="0.786739" fill="white"/>
<ellipse cx="712.017" cy="1681.62" rx="0.786675" ry="0.786739" fill="white"/>
<ellipse cx="830.032" cy="1681.62" rx="0.786826" ry="0.786739" fill="white"/>
<ellipse cx="948.044" cy="1681.62" rx="0.786783" ry="0.786739" fill="white"/>
<ellipse cx="1066.06" cy="1681.62" rx="0.786783" ry="0.786739" fill="white"/>
<ellipse cx="1066.06" cy="1681.62" rx="0.786783" ry="0.786739" fill="white"/>
<ellipse cx="161.287" cy="1689.49" rx="0.78675" ry="0.786739" fill="white"/>
<ellipse cx="279.298" cy="1689.49" rx="0.786772" ry="0.786739" fill="white"/>
<ellipse cx="397.312" cy="1689.49" rx="0.786718" ry="0.786739" fill="white"/>
<ellipse cx="515.327" cy="1689.49" rx="0.786761" ry="0.786739" fill="white"/>
<ellipse cx="633.339" cy="1689.49" rx="0.786761" ry="0.786739" fill="white"/>
<ellipse cx="751.355" cy="1689.49" rx="0.786761" ry="0.786739" fill="white"/>
<ellipse cx="869.369" cy="1689.49" rx="0.786826" ry="0.786739" fill="white"/>
<circle cx="987.38" cy="1689.49" r="0.786739" fill="white"/>
<ellipse cx="1105.4" cy="1689.49" rx="0.786783" ry="0.786739" fill="white"/>
<ellipse cx="1105.4" cy="1689.49" rx="0.786783" ry="0.786739" fill="white"/>
<ellipse cx="109.359" cy="1642.28" rx="0.786758" ry="0.786653" fill="white"/>
<ellipse cx="227.374" cy="1642.28" rx="0.786739" ry="0.786653" fill="white"/>
<ellipse cx="345.388" cy="1642.28" rx="0.786761" ry="0.786653" fill="white"/>
<ellipse cx="463.399" cy="1642.28" rx="0.786804" ry="0.786653" fill="white"/>
<ellipse cx="581.415" cy="1642.28" rx="0.786761" ry="0.786653" fill="white"/>
<ellipse cx="699.429" cy="1642.28" rx="0.786761" ry="0.786653" fill="white"/>
<ellipse cx="817.442" cy="1642.28" rx="0.786783" ry="0.786653" fill="white"/>
<ellipse cx="935.457" cy="1642.28" rx="0.786739" ry="0.786653" fill="white"/>
<ellipse cx="1053.47" cy="1642.28" rx="0.786739" ry="0.786653" fill="white"/>
<ellipse cx="195.902" cy="1720.96" rx="0.786761" ry="0.786739" fill="white"/>
<ellipse cx="313.918" cy="1720.96" rx="0.786761" ry="0.786739" fill="white"/>
<ellipse cx="431.929" cy="1720.96" rx="0.786729" ry="0.786739" fill="white"/>
<ellipse cx="549.943" cy="1720.96" rx="0.786761" ry="0.786739" fill="white"/>
<ellipse cx="667.958" cy="1720.96" rx="0.786826" ry="0.786739" fill="white"/>
<ellipse cx="785.97" cy="1720.96" rx="0.786761" ry="0.786739" fill="white"/>
<circle cx="903.986" cy="1720.96" r="0.786739" fill="white"/>
<circle cx="1022" cy="1720.96" r="0.786739" fill="white"/>
<circle cx="1022" cy="1720.96" r="0.786739" fill="white"/>
<ellipse cx="1171.48" cy="1642.28" rx="0.786783" ry="0.786653" fill="white"/>
<ellipse cx="284.807" cy="1672.96" rx="1.57351" ry="1.57348" fill="white"/>
<ellipse cx="520.833" cy="1665.1" rx="1.57352" ry="1.57348" fill="white"/>
<ellipse cx="756.863" cy="1657.23" rx="1.57346" ry="1.57348" fill="white"/>
<ellipse cx="992.89" cy="1665.1" rx="1.57352" ry="1.57348" fill="white"/>
<ellipse cx="1257.24" cy="1534.18" rx="1.57339" ry="1.57348" fill="white"/>
<ellipse cx="24.389" cy="1694.68" rx="1.57353" ry="1.57357" fill="white"/>
<ellipse cx="260.417" cy="1702.55" rx="1.57351" ry="1.57339" fill="white"/>
<ellipse cx="496.446" cy="1694.68" rx="1.57348" ry="1.57357" fill="white"/>
<ellipse cx="732.472" cy="1686.81" rx="1.57361" ry="1.57357" fill="white"/>
<ellipse cx="968.5" cy="1694.68" rx="1.57348" ry="1.57357" fill="white"/>
<ellipse cx="1204.53" cy="1702.55" rx="1.57352" ry="1.57339" fill="white"/>
<ellipse rx="0.786756" ry="0.786739" transform="matrix(-1 0 0 1 1129 1751.8)" fill="white"/>
<ellipse rx="0.786761" ry="0.786739" transform="matrix(-1 0 0 1 1010.99 1751.8)" fill="white"/>
<ellipse rx="0.78675" ry="0.786739" transform="matrix(-1 0 0 1 892.971 1751.8)" fill="white"/>
<ellipse rx="0.786761" ry="0.786739" transform="matrix(-1 0 0 1 774.959 1751.8)" fill="white"/>
<ellipse rx="0.786826" ry="0.786739" transform="matrix(-1 0 0 1 656.946 1751.8)" fill="white"/>
<ellipse rx="0.786675" ry="0.786739" transform="matrix(-1 0 0 1 538.931 1751.8)" fill="white"/>
<ellipse rx="0.786783" ry="0.786739" transform="matrix(-1 0 0 1 420.915 1751.8)" fill="white"/>
<circle r="0.786739" transform="matrix(-1 0 0 1 302.903 1751.8)" fill="white"/>
<circle r="0.786739" transform="matrix(-1 0 0 1 184.888 1751.8)" fill="white"/>
<ellipse rx="0.786761" ry="0.786826" transform="matrix(-1 0 0 1 1089.66 1759.66)" fill="white"/>
<ellipse rx="0.786761" ry="0.786826" transform="matrix(-1 0 0 1 971.645 1759.66)" fill="white"/>
<ellipse rx="0.786783" ry="0.786826" transform="matrix(-1 0 0 1 853.633 1759.66)" fill="white"/>
<ellipse rx="0.786761" ry="0.786826" transform="matrix(-1 0 0 1 735.619 1759.66)" fill="white"/>
<ellipse rx="0.786761" ry="0.786826" transform="matrix(-1 0 0 1 617.605 1759.66)" fill="white"/>
<ellipse rx="0.786739" ry="0.786826" transform="matrix(-1 0 0 1 499.59 1759.66)" fill="white"/>
<ellipse rx="0.786783" ry="0.786826" transform="matrix(-1 0 0 1 381.576 1759.66)" fill="white"/>
<ellipse rx="0.786783" ry="0.786826" transform="matrix(-1 0 0 1 263.562 1759.66)" fill="white"/>
<ellipse rx="0.786739" ry="0.786826" transform="matrix(-1 0 0 1 145.548 1759.66)" fill="white"/>
<ellipse rx="0.786758" ry="0.786826" transform="matrix(-1 0 0 1 1173.06 1791.13)" fill="white"/>
<ellipse rx="0.786739" ry="0.786826" transform="matrix(-1 0 0 1 1055.04 1791.13)" fill="white"/>
<ellipse rx="0.786772" ry="0.786826" transform="matrix(-1 0 0 1 937.03 1791.13)" fill="white"/>
<ellipse rx="0.786761" ry="0.786826" transform="matrix(-1 0 0 1 819.015 1791.13)" fill="white"/>
<ellipse rx="0.786739" ry="0.786826" transform="matrix(-1 0 0 1 700.999 1791.13)" fill="white"/>
<ellipse rx="0.786761" ry="0.786826" transform="matrix(-1 0 0 1 582.99 1791.13)" fill="white"/>
<circle r="0.786826" transform="matrix(-1 0 0 1 464.974 1791.13)" fill="white"/>
<ellipse rx="0.786783" ry="0.786826" transform="matrix(-1 0 0 1 346.959 1791.13)" fill="white"/>
<ellipse rx="0.786739" ry="0.786826" transform="matrix(-1 0 0 1 228.946 1791.13)" fill="white"/>
<ellipse rx="1.57352" ry="1.57357" transform="matrix(-1 0 0 1 1207.68 1738.42)" fill="white"/>
<ellipse rx="1.57351" ry="1.57348" transform="matrix(-1 0 0 1 971.646 1746.29)" fill="white"/>
<ellipse rx="1.57352" ry="1.57357" transform="matrix(-1 0 0 1 735.621 1738.42)" fill="white"/>
<ellipse rx="1.57352" ry="1.57348" transform="matrix(-1 0 0 1 499.592 1730.55)" fill="white"/>
<ellipse rx="1.57352" ry="1.57357" transform="matrix(-1 0 0 1 263.564 1738.42)" fill="white"/>
<ellipse rx="1.57352" ry="1.57348" transform="matrix(-1 0 0 1 122.734 1803.88)" fill="white"/>
<ellipse rx="0.786758" ry="0.786739" transform="matrix(-1 0 0 1 1220.26 1811.9)" fill="white"/>
<circle r="0.786739" transform="matrix(-1 0 0 1 1102.25 1811.9)" fill="white"/>
<ellipse rx="0.786761" ry="0.786739" transform="matrix(-1 0 0 1 984.234 1811.9)" fill="white"/>
<ellipse rx="0.786804" ry="0.786739" transform="matrix(-1 0 0 1 866.223 1811.9)" fill="white"/>
<ellipse rx="0.786761" ry="0.786739" transform="matrix(-1 0 0 1 748.207 1811.9)" fill="white"/>
<ellipse rx="0.786675" ry="0.786739" transform="matrix(-1 0 0 1 630.192 1811.9)" fill="white"/>
<ellipse rx="0.786826" ry="0.786739" transform="matrix(-1 0 0 1 512.177 1811.9)" fill="white"/>
<ellipse rx="0.786783" ry="0.786739" transform="matrix(-1 0 0 1 394.166 1811.9)" fill="white"/>
<ellipse rx="0.786783" ry="0.786739" transform="matrix(-1 0 0 1 276.151 1811.9)" fill="white"/>
<ellipse rx="0.786783" ry="0.786739" transform="matrix(-1 0 0 1 276.151 1811.9)" fill="white"/>
<ellipse rx="0.78675" ry="0.786739" transform="matrix(-1 0 0 1 1180.92 1819.77)" fill="white"/>
<ellipse rx="0.786772" ry="0.786739" transform="matrix(-1 0 0 1 1062.91 1819.77)" fill="white"/>
<ellipse rx="0.786718" ry="0.786739" transform="matrix(-1 0 0 1 944.897 1819.77)" fill="white"/>
<ellipse rx="0.786761" ry="0.786739" transform="matrix(-1 0 0 1 826.884 1819.77)" fill="white"/>
<ellipse rx="0.786761" ry="0.786739" transform="matrix(-1 0 0 1 708.869 1819.77)" fill="white"/>
<ellipse rx="0.786761" ry="0.786739" transform="matrix(-1 0 0 1 590.854 1819.77)" fill="white"/>
<ellipse rx="0.786826" ry="0.786739" transform="matrix(-1 0 0 1 472.84 1819.77)" fill="white"/>
<circle r="0.786739" transform="matrix(-1 0 0 1 354.828 1819.77)" fill="white"/>
<ellipse rx="0.786783" ry="0.786739" transform="matrix(-1 0 0 1 236.814 1819.77)" fill="white"/>
<ellipse rx="0.786783" ry="0.786739" transform="matrix(-1 0 0 1 236.814 1819.77)" fill="white"/>
<ellipse rx="0.786739" ry="0.786653" transform="matrix(-1 0 0 1 1114.84 1772.57)" fill="white"/>
<ellipse rx="0.786761" ry="0.786653" transform="matrix(-1 0 0 1 996.825 1772.57)" fill="white"/>
<ellipse rx="0.786804" ry="0.786653" transform="matrix(-1 0 0 1 878.81 1772.57)" fill="white"/>
<ellipse rx="0.786761" ry="0.786653" transform="matrix(-1 0 0 1 760.794 1772.57)" fill="white"/>
<ellipse rx="0.786761" ry="0.786653" transform="matrix(-1 0 0 1 642.783 1772.57)" fill="white"/>
<ellipse rx="0.786783" ry="0.786653" transform="matrix(-1 0 0 1 524.769 1772.57)" fill="white"/>
<ellipse rx="0.786739" ry="0.786653" transform="matrix(-1 0 0 1 406.754 1772.57)" fill="white"/>
<ellipse rx="0.786739" ry="0.786653" transform="matrix(-1 0 0 1 288.739 1772.57)" fill="white"/>
<ellipse rx="0.786761" ry="0.786739" transform="matrix(-1 0 0 1 1146.31 1851.24)" fill="white"/>
<ellipse rx="0.786761" ry="0.786739" transform="matrix(-1 0 0 1 1028.29 1851.24)" fill="white"/>
<ellipse rx="0.786729" ry="0.786739" transform="matrix(-1 0 0 1 910.282 1851.24)" fill="white"/>
<ellipse rx="0.786761" ry="0.786739" transform="matrix(-1 0 0 1 792.266 1851.24)" fill="white"/>
<ellipse rx="0.786826" ry="0.786739" transform="matrix(-1 0 0 1 674.253 1851.24)" fill="white"/>
<ellipse rx="0.786761" ry="0.786739" transform="matrix(-1 0 0 1 556.239 1851.24)" fill="white"/>
<circle r="0.786739" transform="matrix(-1 0 0 1 438.223 1851.24)" fill="white"/>
<circle r="0.786739" transform="matrix(-1 0 0 1 320.209 1851.24)" fill="white"/>
<circle r="0.786739" transform="matrix(-1 0 0 1 320.209 1851.24)" fill="white"/>
<ellipse rx="0.786783" ry="0.786653" transform="matrix(-1 0 0 1 170.726 1772.57)" fill="white"/>
<ellipse rx="1.57351" ry="1.57348" transform="matrix(-1 0 0 1 1057.4 1803.25)" fill="white"/>
<ellipse rx="1.57352" ry="1.57348" transform="matrix(-1 0 0 1 821.377 1795.38)" fill="white"/>
<ellipse rx="1.57346" ry="1.57348" transform="matrix(-1 0 0 1 585.349 1787.52)" fill="white"/>
<ellipse rx="1.57352" ry="1.57348" transform="matrix(-1 0 0 1 349.321 1795.38)" fill="white"/>
<ellipse rx="1.57351" ry="1.57339" transform="matrix(-1 0 0 1 1081.79 1832.83)" fill="white"/>
<ellipse rx="1.57348" ry="1.57357" transform="matrix(-1 0 0 1 845.766 1824.97)" fill="white"/>
<ellipse rx="1.57361" ry="1.57357" transform="matrix(-1 0 0 1 609.737 1817.1)" fill="white"/>
<ellipse rx="1.57348" ry="1.57357" transform="matrix(-1 0 0 1 373.71 1824.97)" fill="white"/>
<ellipse rx="1.57352" ry="1.57339" transform="matrix(-1 0 0 1 137.68 1832.83)" fill="white"/>
</g>
</svg>
